<svg aria-hidden="true" xmlns="http://www.w3.org/2000/svg" xmlns:xlink="http://www.w3.org/1999/xlink"><symbol viewBox="0 0 21 15" id="check" xmlns="http://www.w3.org/2000/svg">
<path d="M8.64139 14.4423C8.13959 14.4423 7.63779 14.2502 7.25559 13.868L1.37509 7.9875C0.608693 7.2211 0.608693 5.9823 1.37509 5.2158C2.14149 4.4494 3.38029 4.4494 4.14679 5.2158L8.64139 9.7105L17.0564 1.2955C17.8228 0.529103 19.0616 0.529103 19.828 1.2955C20.5944 2.0619 20.5944 3.3008 19.828 4.0672L10.0272 13.868C9.64499 14.2502 9.14319 14.4423 8.64139 14.4423Z"/>
</symbol><symbol viewBox="0 0 39 31" id="doublelike" xmlns="http://www.w3.org/2000/svg">
<path d="M19.3184 24.014C17.0479 21.7435 17.0479 18.0638 19.3184 15.7933C20.4528 14.6607 21.9412 14.0917 23.4279 14.0917C24.9146 14.0917 26.403 14.6589 27.5374 15.7933C27.784 16.0399 27.9901 16.3076 28.1839 16.5842C28.3776 16.3094 28.5837 16.0399 28.8303 15.7933C29.9647 14.6607 31.4531 14.0917 32.9398 14.0917C34.4265 14.0917 35.9149 14.6589 37.0493 15.7933C37.1251 15.869 37.1779 15.9589 37.2501 16.0381C39.6528 11.9533 39.1384 6.6266 35.6313 3.1196C33.551 1.041 30.8225 0 28.0958 0C25.369 0 22.6405 1.041 20.5602 3.1213C20.1093 3.5722 19.7306 4.0655 19.3765 4.571C19.0225 4.0655 18.6438 3.5722 18.1928 3.1213C16.1126 1.041 13.384 0 10.6573 0C7.9306 0 5.202 1.041 3.1218 3.1213C-1.0406 7.2837 -1.0406 14.0301 3.1218 18.1924C4.9308 20.0014 15.8765 29.1064 16.6357 29.8656C17.3931 30.623 18.3848 31 19.3765 31C20.3682 31 21.36 30.6213 22.1174 29.8656C22.2953 29.6877 23.0439 29.043 24.0902 28.1517C22.2055 26.5523 19.8997 24.5953 19.3184 24.014Z"/>
</symbol><symbol viewBox="0 0 39 31" id="like" xmlns="http://www.w3.org/2000/svg">
<path d="M19.3184 24.014C17.0479 21.7435 17.0479 18.0638 19.3184 15.7933C20.4528 14.6607 21.9412 14.0917 23.4279 14.0917C24.9146 14.0917 26.403 14.6589 27.5374 15.7933C27.784 16.0399 27.9901 16.3076 28.1839 16.5842C28.3776 16.3094 28.5837 16.0399 28.8303 15.7933C29.9647 14.6607 31.4531 14.0917 32.9398 14.0917C34.4265 14.0917 35.9149 14.6589 37.0493 15.7933C37.1251 15.869 37.1779 15.9589 37.2501 16.0381C39.6528 11.9533 39.1384 6.6266 35.6313 3.1196C33.551 1.041 30.8225 0 28.0958 0C25.369 0 22.6405 1.041 20.5602 3.1213C20.1093 3.5722 19.7306 4.0655 19.3765 4.571C19.0225 4.0655 18.6438 3.5722 18.1928 3.1213C16.1126 1.041 13.384 0 10.6573 0C7.9306 0 5.202 1.041 3.1218 3.1213C-1.0406 7.2837 -1.0406 14.0301 3.1218 18.1924C4.9308 20.0014 15.8765 29.1064 16.6357 29.8656C17.3931 30.623 18.3848 31 19.3765 31C20.3682 31 21.36 30.6213 22.1174 29.8656C22.2953 29.6877 23.0439 29.043 24.0902 28.1517C22.2055 26.5523 19.8997 24.5953 19.3184 24.014Z"/>
</symbol><symbol viewBox="0 0 26 26" id="littlecheck" xmlns="http://www.w3.org/2000/svg">
<path d="M13 26C20.1799 26 26 20.1799 26 13C26 5.8201 20.1799 0 13 0C5.8201 0 0 5.8201 0 13C0 20.1799 5.8201 26 13 26Z"/>
</symbol><symbol viewBox="0 0 36 36" id="phone" xmlns="http://www.w3.org/2000/svg">
<path d="M29.0856 35.3845C29.0732 35.3845 29.0609 35.3845 29.0485 35.3845C23.11 35.19 16.1529 29.4336 11.3595 24.6371C6.55989 19.8407 0.803488 12.8805 0.618288 6.9698C0.550388 4.8956 5.64019 1.2072 5.69259 1.1701C7.01369 0.250395 8.47979 0.577496 9.08169 1.4109C9.48909 1.9757 13.3473 7.8216 13.767 8.4853C14.2022 9.1736 14.1374 10.1983 13.5942 11.2261C13.2948 11.7971 12.3009 13.5441 11.8349 14.359C12.338 15.075 13.6683 16.8313 16.4153 19.5783C19.1654 22.3253 20.9186 23.6587 21.6377 24.1618C22.4526 23.6957 24.1996 22.7019 24.7706 22.4025C25.7829 21.8654 26.8015 21.7975 27.496 22.2235C28.2059 22.6587 34.0364 26.5354 34.5734 26.9088C35.0241 27.2268 35.3142 27.77 35.3728 28.4027C35.4284 29.0416 35.2309 29.7176 34.8204 30.3071C34.7864 30.3565 31.1412 35.3845 29.0856 35.3845Z"/>
</symbol><symbol viewBox="0 0 27 29" id="plus" xmlns="http://www.w3.org/2000/svg">
<path d="M26.3711 11.4072V15.9951H0.0566406V11.4072H26.3711ZM15.666 0.201172V28.1504H10.7881V0.201172H15.666Z"/>
</symbol></svg>