<svg width="185" height="50" viewBox="0 0 185 50" fill="none" xmlns="http://www.w3.org/2000/svg">
<g filter="url(#filter0_d_1_8)">
<path d="M10.6898 9.59289L4.37536 10.9386L10.7013 12.7904C11.0948 12.9083 11.4495 13.1294 11.7286 13.4308C12.0078 13.7322 12.2011 14.1028 12.2885 14.5041L13.8643 22.0722L15.5665 14.6422C15.6663 14.2274 15.8794 13.8486 16.182 13.548C16.4846 13.2474 16.8649 13.0368 17.2803 12.9399L23.6062 11.5022L17.0962 9.67341C16.7076 9.54301 16.3609 9.31113 16.0919 9.00173C15.823 8.69234 15.6416 8.31668 15.5665 7.91365L14.1173 0.621582L12.4726 7.86764C12.3714 8.29552 12.1497 8.68544 11.8337 8.9912C11.5177 9.29697 11.1208 9.50577 10.6898 9.59289Z" fill="#0075FF"/>
<path d="M19.6457 30.1071L13.9904 31.3123L19.656 32.9708C20.0084 33.0764 20.3261 33.2744 20.5761 33.5443C20.8261 33.8143 20.9992 34.1462 21.0775 34.5056L22.4888 41.2837L24.0133 34.6292C24.1027 34.2578 24.2935 33.9185 24.5646 33.6493C24.8356 33.3801 25.1761 33.1915 25.5482 33.1047L31.2137 31.817L25.3833 30.1792C25.0353 30.0624 24.7247 29.8547 24.4839 29.5776C24.243 29.3005 24.0805 28.9641 24.0133 28.6031L22.7154 22.0723L21.2423 28.5619C21.1517 28.9451 20.9531 29.2943 20.6702 29.5682C20.3872 29.842 20.0317 30.029 19.6457 30.1071Z" fill="#0075FF"/>
<path d="M32.4683 14.3663L22.794 16.4281L32.4859 19.2651C33.0887 19.4458 33.6322 19.7846 34.0599 20.2463C34.4875 20.708 34.7837 21.2758 34.9177 21.8907L37.3318 33.4857L39.9398 22.1022C40.0926 21.4668 40.4191 20.8864 40.8828 20.4258C41.3464 19.9653 41.929 19.6427 42.5654 19.4942L52.2572 17.2915L42.2834 14.4897C41.688 14.2899 41.1568 13.9346 40.7447 13.4606C40.3327 12.9866 40.0548 12.4111 39.9398 11.7936L37.7195 0.621582L35.1996 11.7231C35.0446 12.3786 34.7049 12.976 34.2208 13.4445C33.7367 13.913 33.1286 14.2329 32.4683 14.3663Z" fill="#0075FF"/>
<path d="M60.5205 19.7955C60.5205 18.2552 60.8978 16.8327 61.6522 15.5282C62.4223 14.2236 63.4597 13.1941 64.7643 12.4397C66.0688 11.6695 67.4912 11.2844 69.0316 11.2844C70.6033 11.2844 72.0572 11.6931 73.3932 12.5104C74.7291 13.312 75.7586 14.3808 76.4816 15.7168L73.7704 17.1549C73.2989 16.3219 72.6387 15.6539 71.79 15.1509C70.9412 14.6323 70.0218 14.3729 69.0316 14.3729C68.0571 14.3729 67.1455 14.6166 66.2967 15.1038C65.4637 15.591 64.8035 16.2512 64.3163 17.0842C63.8291 17.9172 63.5854 18.821 63.5854 19.7955C63.5854 20.77 63.8291 21.6737 64.3163 22.5067C64.8035 23.3398 65.4637 23.9999 66.2967 24.4871C67.1455 24.9744 68.0571 25.218 69.0316 25.218C70.0532 25.218 70.9805 24.9587 71.8136 24.44C72.6623 23.9213 73.3224 23.2297 73.794 22.3653L76.5052 23.8506C75.7822 25.2023 74.7527 26.2868 73.4167 27.1041C72.0807 27.9057 70.619 28.3065 69.0316 28.3065C67.4912 28.3065 66.0688 27.9293 64.7643 27.1748C63.4597 26.4047 62.4223 25.3673 61.6522 24.0628C60.8978 22.7582 60.5205 21.3358 60.5205 19.7955ZM81.6701 24.6757C81.6701 24.9272 81.7329 25.108 81.8587 25.218C81.9844 25.328 82.1809 25.383 82.4481 25.383C82.6524 25.383 82.896 25.3595 83.179 25.3123V28C82.5974 28.0943 82.0552 28.1415 81.5522 28.1415C80.6406 28.1415 79.9412 27.9057 79.4539 27.4342C78.9824 26.9469 78.7466 26.0903 78.7466 24.8644V11.4966H81.6701V24.6757ZM90.3653 15.9054C91.497 15.9054 92.5107 16.1883 93.4066 16.7541C94.3182 17.3042 95.0255 18.0508 95.5285 18.9939C96.0314 19.9369 96.2829 20.9821 96.2829 22.1295C96.2829 22.5067 96.2515 22.8525 96.1886 23.1669H87.0882C87.324 23.9999 87.7405 24.6522 88.3377 25.1237C88.935 25.5795 89.6973 25.8074 90.6246 25.8074C91.1905 25.8074 91.7327 25.6817 92.2514 25.4302C92.7858 25.1787 93.1866 24.8565 93.4538 24.4636L95.6935 25.7838C95.1434 26.6011 94.4283 27.2298 93.5481 27.6699C92.6836 28.0943 91.6856 28.3065 90.5539 28.3065C89.2965 28.3065 88.1806 28.0393 87.2061 27.5049C86.2316 26.9705 85.4771 26.2318 84.9428 25.2887C84.4241 24.3457 84.1647 23.2848 84.1647 22.1059C84.1647 20.9428 84.4241 19.8898 84.9428 18.9467C85.4771 18.0037 86.2159 17.265 87.1589 16.7306C88.102 16.1804 89.1708 15.9054 90.3653 15.9054ZM93.5481 20.88C93.4223 20.1255 93.0687 19.5361 92.4872 19.1118C91.9213 18.6717 91.2062 18.4516 90.3417 18.4516C89.7445 18.4516 89.1943 18.5616 88.6914 18.7817C88.2041 19.0017 87.8112 19.3004 87.5126 19.6776C87.2139 20.0548 87.0568 20.4556 87.041 20.88H93.5481ZM107.374 16.2119H110.298V28H107.374V26.8448C106.824 27.3163 106.219 27.6857 105.559 27.9528C104.915 28.2043 104.231 28.3301 103.508 28.3301C102.313 28.3301 101.268 28.0629 100.372 27.5285C99.4764 26.9941 98.7848 26.2554 98.2976 25.3123C97.8261 24.3693 97.5903 23.3083 97.5903 22.1295C97.5903 20.9507 97.8261 19.8898 98.2976 18.9467C98.7848 18.0037 99.4764 17.265 100.372 16.7306C101.268 16.1804 102.313 15.9054 103.508 15.9054C104.231 15.9054 104.915 16.039 105.559 16.3062C106.219 16.5577 106.824 16.9192 107.374 17.3907V16.2119ZM103.885 25.5245C104.53 25.5245 105.111 25.383 105.63 25.1001C106.164 24.8015 106.581 24.3928 106.879 23.8742C107.194 23.3555 107.351 22.7661 107.351 22.1059C107.351 21.1157 107.013 20.3063 106.337 19.6776C105.677 19.0489 104.86 18.7345 103.885 18.7345C102.895 18.7345 102.078 19.0567 101.433 19.7012C100.805 20.3299 100.49 21.1393 100.49 22.1295C100.49 23.1197 100.805 23.937 101.433 24.5814C102.078 25.2101 102.895 25.5245 103.885 25.5245ZM119.294 15.9054C119.985 15.9054 120.685 16.0547 121.392 16.3533C122.115 16.6363 122.728 17.1549 123.231 17.9094C123.749 18.6638 124.009 19.6776 124.009 20.9507V28H121.085V20.9507C121.085 20.0705 120.834 19.4418 120.331 19.0646C119.844 18.6717 119.27 18.4752 118.61 18.4752C117.95 18.4752 117.384 18.711 116.912 19.1825C116.457 19.6383 116.229 20.377 116.229 21.3987V28H113.305V16.2119H116.229V17.2021C116.653 16.8091 117.125 16.4948 117.643 16.259C118.162 16.0233 118.712 15.9054 119.294 15.9054ZM127.845 14.2551C127.295 14.2551 126.863 14.1057 126.549 13.8071C126.234 13.5085 126.077 13.0998 126.077 12.5811C126.077 12.0467 126.234 11.6302 126.549 11.3316C126.863 11.033 127.295 10.8836 127.845 10.8836C128.396 10.8836 128.828 11.033 129.142 11.3316C129.456 11.6302 129.614 12.0467 129.614 12.5811C129.614 13.0841 129.449 13.4928 129.119 13.8071C128.804 14.1057 128.38 14.2551 127.845 14.2551ZM126.36 28V16.2119H129.284V28H126.36ZM138.196 15.9054C138.888 15.9054 139.587 16.0547 140.294 16.3533C141.017 16.6363 141.63 17.1549 142.133 17.9094C142.652 18.6638 142.911 19.6776 142.911 20.9507V28H139.988V20.9507C139.988 20.0705 139.736 19.4418 139.233 19.0646C138.746 18.6717 138.172 18.4752 137.512 18.4752C136.852 18.4752 136.286 18.711 135.815 19.1825C135.359 19.6383 135.131 20.377 135.131 21.3987V28H132.208V16.2119H135.131V17.2021C135.555 16.8091 136.027 16.4948 136.546 16.259C137.064 16.0233 137.614 15.9054 138.196 15.9054ZM154.504 16.2119H157.428V27.4106C157.428 28.5265 157.145 29.5089 156.579 30.3576C156.029 31.2064 155.259 31.8586 154.269 32.3145C153.278 32.786 152.17 33.0217 150.944 33.0217C149.577 33.0217 148.335 32.7545 147.219 32.2201C146.103 31.7015 145.318 31.0178 144.862 30.169L147.361 28.7309C147.597 29.1867 148.037 29.5639 148.681 29.8625C149.326 30.1769 150.104 30.334 151.015 30.334C152.021 30.334 152.854 30.059 153.514 29.5089C154.174 28.9745 154.504 28.2751 154.504 27.4106V26.8683C153.97 27.3399 153.373 27.7014 152.713 27.9528C152.053 28.2043 151.369 28.3301 150.662 28.3301C149.467 28.3301 148.422 28.0629 147.526 27.5285C146.63 26.9941 145.938 26.2554 145.451 25.3123C144.98 24.3693 144.744 23.3083 144.744 22.1295C144.744 20.9507 144.98 19.8898 145.451 18.9467C145.938 18.0037 146.63 17.265 147.526 16.7306C148.422 16.1804 149.467 15.9054 150.662 15.9054C151.369 15.9054 152.045 16.039 152.689 16.3062C153.349 16.5577 153.954 16.9113 154.504 17.3671V16.2119ZM151.039 25.5245C151.683 25.5245 152.265 25.383 152.783 25.1001C153.318 24.8015 153.734 24.3928 154.033 23.8742C154.347 23.3555 154.504 22.7661 154.504 22.1059C154.504 21.1157 154.167 20.3063 153.491 19.6776C152.831 19.0489 152.013 18.7345 151.039 18.7345C150.049 18.7345 149.231 19.0567 148.587 19.7012C147.958 20.3299 147.644 21.1393 147.644 22.1295C147.644 23.1197 147.958 23.937 148.587 24.5814C149.231 25.2101 150.049 25.5245 151.039 25.5245ZM175.072 19.7247L180.423 28H176.746L172.926 22.0824L169.107 28H165.429L170.781 19.7247L165.452 11.4966H169.13L172.926 17.3671L176.722 11.4966H180.4L175.072 19.7247Z" fill="#211F54"/>
</g>
<defs>
<filter id="filter0_d_1_8" x="0" y="0" width="186" height="50" filterUnits="userSpaceOnUse" color-interpolation-filters="sRGB">
<feFlood flood-opacity="0" result="BackgroundImageFix"/>
<feColorMatrix in="SourceAlpha" type="matrix" values="0 0 0 0 0 0 0 0 0 0 0 0 0 0 0 0 0 0 127 0" result="hardAlpha"/>
<feOffset dy="4"/>
<feGaussianBlur stdDeviation="2"/>
<feComposite in2="hardAlpha" operator="out"/>
<feColorMatrix type="matrix" values="0 0 0 0 0 0 0 0 0 0 0 0 0 0 0 0 0 0 0.25 0"/>
<feBlend mode="normal" in2="BackgroundImageFix" result="effect1_dropShadow_1_8"/>
<feBlend mode="normal" in="SourceGraphic" in2="effect1_dropShadow_1_8" result="shape"/>
</filter>
</defs>
</svg>
